<svg width="250" height="68" viewBox="0 0 250 68" fill="none" xmlns="http://www.w3.org/2000/svg">
<rect width="250" height="68" fill="white"/>
<path d="M69.6144 35.7295C68.6317 35.0148 67.2918 34.4789 65.9518 34.3895C64.8798 34.3002 63.7185 34.4789 62.6465 34.9255V35.9082V37.0695C62.7358 36.9802 62.9145 36.8015 63.0931 36.7122C63.8971 36.0868 64.9691 35.7295 66.0411 35.5508C67.1131 35.4615 68.2744 35.6402 69.3464 36.1762C70.4184 36.7122 71.3117 37.4268 71.937 38.4095C71.401 37.4268 70.597 36.4442 69.6144 35.7295Z" fill="#2E82BC"/>
<path d="M30.2186 39.9282V39.3029V38.6776C29.1466 38.4096 28.0746 38.4096 27.0026 38.6776C25.752 38.9456 24.5906 39.6602 23.6973 40.4642C22.804 41.3575 22.268 42.4295 22 43.5015C22.4467 42.4295 23.1613 41.4469 24.0546 40.8215C24.948 40.1069 26.1093 39.6602 27.1813 39.5709C28.2533 39.3922 29.3252 39.5709 30.2186 39.9282Z" fill="#2E82BC"/>
<path d="M62.6464 39.3922C62.4678 39.3029 62.2891 39.2135 62.1104 39.1242C61.8424 39.0349 61.5744 38.9455 61.3064 38.8562C61.1278 38.7669 60.9491 38.7669 60.7704 38.6775C60.5918 38.5882 60.3238 38.5882 60.1451 38.4989C59.9665 38.4989 59.8771 38.4095 59.6985 38.4095C59.0731 38.2309 58.4478 38.1415 57.8225 38.0522C56.7505 37.8735 55.6785 37.8735 54.6065 37.8735C53.3559 37.9629 52.0159 38.1415 50.7652 38.4989C49.9613 38.7669 49.2466 39.0349 48.5319 39.3922C48.0853 39.5708 47.6386 39.8388 47.2813 40.1068C45.4053 41.1788 43.7973 42.6975 42.636 44.4841C42.5467 44.3948 42.4573 44.3948 42.368 44.3055C40.6707 43.3228 38.6161 42.7868 36.5614 42.7868C36.0254 42.7868 35.5788 42.7868 35.0428 42.8761C34.4175 42.9655 33.7921 43.0548 33.1668 43.2335C32.8095 43.3228 32.4521 43.5015 32.0948 43.5908C31.6482 43.7695 31.1122 44.0375 30.6655 44.2161C30.4868 44.3055 30.3082 44.3948 30.1295 44.4841C28.6109 45.4668 27.4495 46.8068 26.8242 48.3254C28.1642 47.0747 29.6828 46.0921 31.2908 45.4668C32.8988 44.8414 34.6855 44.4841 36.3828 44.4841C38.1694 44.4841 39.8667 44.7521 41.4747 45.4668C43.0827 46.0921 44.6013 47.0747 45.9413 48.3254C45.9413 48.3254 47.5493 40.9108 54.7852 39.6602C62.1998 38.3202 67.5597 43.2335 67.5597 43.2335C67.113 42.7868 66.7557 42.4295 66.309 42.0721C66.7557 42.4295 67.2024 42.7868 67.5597 43.2335C66.4877 41.7148 64.7011 40.3748 62.6464 39.3922Z" fill="#2E82BC"/>
<path d="M62.6463 30.28V29.2974V24.2054L61.9317 24.0268C61.1277 23.8481 60.413 23.6695 59.609 23.6695V20.9895L58.9837 20.8108C57.3757 20.2748 55.8571 20.0068 54.5171 20.0068C52.9985 20.0068 51.7478 20.2748 50.5865 20.7215C48.8892 21.3468 47.6385 22.2401 46.8345 23.0441C46.6559 23.2228 46.4772 23.4015 46.3879 23.4908C46.0305 23.1335 45.5839 22.6868 44.9586 22.2401C44.2439 21.7041 43.2612 21.1682 42.1893 20.7215C41.1173 20.2748 39.7773 20.0068 38.2586 20.0068C36.9187 20.0068 35.4 20.2748 33.792 20.8108L33.1667 20.9895V23.7588C32.4521 23.7588 31.6481 23.9375 30.8441 24.1161L30.2188 24.2054V31.888V32.5133V33.1387V35.2826V42.4292C30.3974 42.3399 30.5761 42.2505 30.7547 42.1612C31.2014 41.8932 31.6481 41.7146 32.1841 41.5359V41.2679V35.0146V34.3893V33.4067V32.5133V25.5454C32.5414 25.4561 32.8987 25.4561 33.256 25.4561V33.228V34.3V34.836V35.104V35.372V41.1786C33.8814 40.9999 34.5067 40.9106 35.132 40.8212V40.7319V32.8707V25.5454V24.6521V23.7588V22.2401C36.2933 21.8828 37.3653 21.7935 38.2586 21.7935C39.5093 21.7935 40.5813 22.0615 41.4746 22.3295C42.8146 22.8655 43.8866 23.5801 44.6012 24.2948C44.9586 24.6521 45.2266 24.9201 45.4052 25.0988L45.4946 25.1881V30.1014V30.7267V37.2479L45.7625 36.9799C46.2092 36.6226 46.9239 36.444 47.3705 36.3546V30.012V25.0988C47.6385 24.7414 48.1745 24.1161 49.0678 23.4908C49.6932 23.0441 50.4078 22.5975 51.3905 22.2401C52.2838 21.8828 53.3558 21.7041 54.6064 21.7041C55.5891 21.7041 56.6611 21.8828 57.8224 22.1508V23.7588V24.6521V25.5454V35.7293C58.4477 35.8186 59.073 35.908 59.6984 36.0866V35.9973V30.1907V25.4561C60.0557 25.4561 60.413 25.5454 60.7704 25.5454V30.28V30.7267V36.176V36.3546C60.949 36.444 61.1277 36.444 61.3063 36.5333C61.5743 36.6226 61.8423 36.712 62.1103 36.8013C62.289 36.8906 62.4677 36.9799 62.6463 37.0693V36.0866V30.28Z" fill="#F46F14"/>
<path d="M90.3395 41.4476C89.1782 41.8049 87.0342 42.3409 84.8902 42.3409C81.9423 42.3409 79.7983 41.6262 78.2797 40.1969C76.761 38.7676 75.957 36.713 75.957 34.301C75.957 28.9411 79.8876 25.8145 85.2476 25.8145C87.3022 25.8145 88.9995 26.1718 89.8035 26.6184L88.9995 29.5664C88.1062 29.2091 87.0342 28.8517 85.2476 28.8517C82.2103 28.8517 79.8876 30.5491 79.8876 34.1223C79.8876 37.517 82.0316 39.4823 84.9796 39.4823C85.7836 39.4823 86.4982 39.3929 86.7662 39.2143V35.8197H84.2649V32.961H90.3395V41.4476Z" fill="#00559F"/>
<path d="M97.4859 25.9028V42.1613H93.8232V25.9028H97.4859Z" fill="#00559F"/>
<path d="M105.079 37.9627L103.918 42.1613H100.166L105.079 25.9028H109.903L114.995 42.1613H111.065L109.814 37.9627H105.079ZM109.189 35.2827L108.206 31.7988C107.938 30.8161 107.67 29.6548 107.402 28.6721H107.313C107.045 29.6548 106.866 30.8161 106.598 31.7988L105.615 35.2827H109.189Z" fill="#00559F"/>
<path d="M117.675 42.1613V25.9028H121.963L125.357 31.8881C126.34 33.5854 127.323 35.64 128.037 37.4267H128.127C127.859 35.2827 127.859 33.1387 127.859 30.6374V25.9028H131.253V42.1613H127.412L123.928 35.908C122.945 34.1214 121.873 32.0668 121.069 30.1908H120.98C121.069 32.3347 121.159 34.6574 121.159 37.248V42.1613H117.675Z" fill="#00559F"/>
<path d="M138.043 29.0295H133.666V25.9028H146.173V28.9401H141.706V42.072H138.043V29.0295Z" fill="#00559F"/>
<path d="M160.019 35.2827H154.034V39.124H160.734V42.1613H150.371V25.9028H160.376V28.9401H154.034V32.3347H160.019V35.2827Z" fill="#F46F14"/>
<path d="M163.86 26.1708C164.843 25.9921 166.719 25.8135 168.595 25.8135C170.828 25.8135 172.168 25.9921 173.419 26.7068C174.58 27.3321 175.384 28.4041 175.384 29.9228C175.384 31.3521 174.58 32.6921 172.704 33.4067C174.58 33.8534 175.92 35.2827 175.92 37.4267C175.92 38.9453 175.206 40.1066 174.223 40.9106C173.062 41.8933 171.096 42.4293 167.88 42.4293C166.094 42.4293 164.754 42.3399 163.95 42.1613V26.1708H163.86ZM167.523 32.3347H168.684C170.65 32.3347 171.632 31.5307 171.632 30.2801C171.632 29.0294 170.739 28.4041 169.042 28.4041C168.238 28.4041 167.791 28.4934 167.523 28.4934V32.3347ZM167.523 39.5706C167.88 39.66 168.327 39.66 168.952 39.66C170.65 39.66 172.079 39.0346 172.079 37.3373C172.079 35.7293 170.65 35.104 168.774 35.104H167.523V39.5706Z" fill="#F46F14"/>
<path d="M193.876 33.8533C193.876 39.2133 190.66 42.4292 185.926 42.4292C181.102 42.4292 178.243 38.7666 178.243 34.1213C178.243 29.2974 181.37 25.6348 186.104 25.6348C191.107 25.6348 193.876 29.3867 193.876 33.8533ZM182.174 34.1213C182.174 37.3373 183.692 39.5706 186.104 39.5706C188.606 39.5706 190.035 37.2479 190.035 34.032C190.035 31.084 188.695 28.5827 186.104 28.5827C183.603 28.5827 182.174 30.9054 182.174 34.1213Z" fill="#F46F14"/>
<path d="M211.743 33.8533C211.743 39.2133 208.527 42.4292 203.792 42.4292C198.968 42.4292 196.109 38.7666 196.109 34.1213C196.109 29.2974 199.236 25.6348 203.971 25.6348C208.973 25.6348 211.743 29.3867 211.743 33.8533ZM200.04 34.1213C200.04 37.3373 201.559 39.5706 203.971 39.5706C206.472 39.5706 207.901 37.2479 207.901 34.032C207.901 31.084 206.561 28.5827 203.971 28.5827C201.469 28.5827 200.04 30.9054 200.04 34.1213Z" fill="#F46F14"/>
<path d="M214.78 25.9028H218.442V33.0494H218.532C218.889 32.4241 219.246 31.8881 219.604 31.2627L223.266 25.8135H227.733L222.373 32.6921L228.001 41.9826H223.713L219.693 35.0147L218.353 36.712V41.9826H214.69V25.9028H214.78Z" fill="#F46F14"/>
</svg>
