<svg width="154" height="22" viewBox="0 0 154 22" fill="none" xmlns="http://www.w3.org/2000/svg">
<path d="M35.51 11.7255C34.7772 11.1925 33.7778 10.7928 32.7785 10.7261C31.979 10.6595 31.1129 10.7928 30.3135 11.1259V11.8587V12.7248C30.3801 12.6582 30.5133 12.5249 30.6466 12.4583C31.2462 11.9919 32.0457 11.7255 32.8451 11.5922C33.6446 11.5256 34.5107 11.6588 35.3101 12.0586C36.1096 12.4583 36.7758 12.9913 37.2422 13.7241C36.8425 12.9913 36.2428 12.2584 35.51 11.7255Z" fill="#2E82BC"/>
<path d="M6.12924 14.8568V14.3904V13.9241C5.32977 13.7242 4.53031 13.7242 3.73084 13.9241C2.79813 14.1239 1.93204 14.6569 1.26582 15.2565C0.599599 15.9227 0.199867 16.7222 0 17.5217C0.333111 16.7222 0.866088 15.9894 1.53231 15.523C2.19853 14.99 3.06462 14.6569 3.86409 14.5903C4.66355 14.457 5.46302 14.5903 6.12924 14.8568Z" fill="#2E82BC"/>
<path d="M30.3131 14.457C30.1799 14.3904 30.0467 14.3238 29.9134 14.2572C29.7135 14.1906 29.5137 14.1239 29.3138 14.0573C29.1806 13.9907 29.0473 13.9907 28.9141 13.9241C28.7808 13.8574 28.581 13.8574 28.4477 13.7908C28.3145 13.7908 28.2479 13.7242 28.1146 13.7242C27.6483 13.591 27.1819 13.5243 26.7155 13.4577C25.9161 13.3245 25.1166 13.3245 24.3172 13.3245C23.3844 13.3911 22.3851 13.5243 21.4524 13.7908C20.8528 13.9907 20.3198 14.1906 19.7868 14.457C19.4537 14.5903 19.1206 14.7902 18.8541 14.99C17.4551 15.7895 16.2559 16.9221 15.3898 18.2545C15.3232 18.1879 15.2565 18.1879 15.1899 18.1213C13.9241 17.3884 12.3918 16.9887 10.8595 16.9887C10.4597 16.9887 10.1266 16.9887 9.7269 17.0553C9.26054 17.1219 8.79419 17.1885 8.32783 17.3218C8.06134 17.3884 7.79485 17.5217 7.52836 17.5883C7.19525 17.7215 6.79552 17.9214 6.46241 18.0546C6.32916 18.1213 6.19592 18.1879 6.06268 18.2545C4.9301 18.9873 4.06401 19.9867 3.59766 21.1193C4.59699 20.1865 5.72957 19.4537 6.92876 18.9873C8.12796 18.521 9.46041 18.2545 10.7262 18.2545C12.0587 18.2545 13.3245 18.4544 14.5237 18.9873C15.7229 19.4537 16.8555 20.1865 17.8548 21.1193C17.8548 21.1193 19.054 15.5896 24.4504 14.6569C29.98 13.6576 33.9774 17.3218 33.9774 17.3218C33.6443 16.9887 33.3778 16.7222 33.0447 16.4557C33.3778 16.7222 33.7109 16.9887 33.9774 17.3218C33.1779 16.1892 31.8455 15.1899 30.3131 14.457Z" fill="#2E82BC"/>
<path d="M30.3128 7.66155V6.92871V3.13124L29.7798 2.998C29.1802 2.86475 28.6472 2.73151 28.0476 2.73151V0.732844L27.5812 0.5996C26.382 0.199866 25.2495 0 24.2501 0C23.1176 0 22.1848 0.199867 21.3188 0.532977C20.0529 0.999333 19.1202 1.66555 18.5206 2.26515C18.3874 2.3984 18.2541 2.53164 18.1875 2.59826C17.921 2.33178 17.5879 1.99867 17.1216 1.66555C16.5886 1.26582 15.8557 0.866088 15.0563 0.532977C14.2568 0.199867 13.2575 0 12.1249 0C11.1256 0 9.99299 0.199866 8.79379 0.5996L8.32744 0.732844V2.79813C7.79446 2.79813 7.19486 2.93138 6.59526 3.06462L6.12891 3.13124V8.86075V9.3271V9.79346V11.3924V16.7222C6.26215 16.6555 6.3954 16.5889 6.52864 16.5223C6.86175 16.3224 7.19486 16.1892 7.59459 16.0559V15.8561V11.1925V10.7262V9.99333V9.3271V4.13057C7.86108 4.06395 8.12757 4.06395 8.39406 4.06395V9.86008V10.6595V11.0593V11.2591V11.459V15.7895C8.86042 15.6562 9.32677 15.5896 9.79313 15.523V15.4563V9.59359V4.13057V3.46435V2.79813V1.66555C10.6592 1.39907 11.4587 1.33244 12.1249 1.33244C13.0576 1.33244 13.8571 1.53231 14.5233 1.73218C15.5226 2.13191 16.3221 2.66489 16.8551 3.19786C17.1216 3.46435 17.3214 3.66422 17.4547 3.79746L17.5213 3.86409V7.52831V7.99466V12.8581L17.7212 12.6582C18.0543 12.3917 18.5873 12.2585 18.9204 12.1919V7.46168V3.79746C19.1202 3.53098 19.52 3.06462 20.1862 2.59826C20.6525 2.26515 21.1855 1.93204 21.9184 1.66555C22.5846 1.39907 23.384 1.26582 24.3168 1.26582C25.0496 1.26582 25.8491 1.39907 26.7152 1.59893V2.79813V3.46435V4.13057V11.7255C27.1815 11.7921 27.6479 11.8587 28.1142 11.992V11.9254V7.59493V4.06395C28.3807 4.06395 28.6472 4.13057 28.9137 4.13057V7.66155V7.99466V12.0586V12.1919C29.0469 12.2585 29.1802 12.2585 29.3134 12.3251C29.5133 12.3917 29.7132 12.4583 29.913 12.525C30.0463 12.5916 30.1795 12.6582 30.3128 12.7248V11.992V7.66155Z" fill="#F46F14"/>
<path d="M50.9664 15.9899C50.1003 16.2564 48.5014 16.6562 46.9025 16.6562C44.7039 16.6562 43.105 16.1232 41.9724 15.0572C40.8398 13.9913 40.2402 12.459 40.2402 10.6602C40.2402 6.66283 43.1716 4.33105 47.1689 4.33105C48.7013 4.33105 49.9671 4.59754 50.5667 4.93065L49.9671 7.12919C49.3008 6.8627 48.5014 6.59621 47.1689 6.59621C44.9038 6.59621 43.1716 7.86203 43.1716 10.5269C43.1716 13.0586 44.7705 14.5242 46.9691 14.5242C47.5687 14.5242 48.1016 14.4576 48.3015 14.3244V11.7927H46.4361V9.66083H50.9664V15.9899Z" fill="#00559F"/>
<path d="M56.296 4.39697V16.5222H53.5645V4.39697H56.296Z" fill="#00559F"/>
<path d="M61.9591 13.391L61.0931 16.5222H58.2949L61.9591 4.39697H65.5567L69.3542 16.5222H66.4228L65.4901 13.391H61.9591ZM65.0238 11.3923L64.2909 8.79404C64.0911 8.06119 63.8912 7.1951 63.6913 6.46226H63.6247C63.4248 7.1951 63.2916 8.06119 63.0917 8.79404L62.3589 11.3923H65.0238Z" fill="#00559F"/>
<path d="M71.3525 16.5222V4.39697H74.5504L77.082 8.86066C77.8149 10.1265 78.5477 11.6588 79.0807 12.9912H79.1473C78.9475 11.3923 78.9475 9.79337 78.9475 7.92795V4.39697H81.4791V16.5222H78.6144L76.0161 11.8587C75.2832 10.5262 74.4838 8.9939 73.8842 7.59484H73.8176C73.8842 9.19377 73.9508 10.9259 73.9508 12.858V16.5222H71.3525Z" fill="#00559F"/>
<path d="M86.5428 6.72875H83.2783V4.39697H92.6054V6.66213H89.2743V16.4556H86.5428V6.72875Z" fill="#00559F"/>
<path d="M102.932 11.3923H98.4678V14.2571H103.465V16.5222H95.7363V4.39697H103.198V6.66213H98.4678V9.19377H102.932V11.3923Z" fill="#F46F14"/>
<path d="M105.796 4.59706C106.529 4.46381 107.928 4.33057 109.327 4.33057C110.992 4.33057 111.992 4.46381 112.924 4.99679C113.791 5.46314 114.39 6.26261 114.39 7.39519C114.39 8.46114 113.791 9.46047 112.391 9.99345C113.791 10.3266 114.79 11.3925 114.79 12.9914C114.79 14.124 114.257 14.9901 113.524 15.5897C112.658 16.3226 111.192 16.7223 108.794 16.7223C107.461 16.7223 106.462 16.6557 105.863 16.5224V4.59706H105.796ZM108.527 9.19398H109.393C110.859 9.19398 111.592 8.59439 111.592 7.66167C111.592 6.72896 110.926 6.26261 109.66 6.26261C109.06 6.26261 108.727 6.32923 108.527 6.32923V9.19398ZM108.527 14.5904C108.794 14.657 109.127 14.657 109.593 14.657C110.859 14.657 111.925 14.1906 111.925 12.9248C111.925 11.7256 110.859 11.2593 109.46 11.2593H108.527V14.5904Z" fill="#F46F14"/>
<path d="M128.181 10.3265C128.181 14.3238 125.783 16.7222 122.252 16.7222C118.654 16.7222 116.522 13.9907 116.522 10.5264C116.522 6.92877 118.854 4.19727 122.385 4.19727C126.116 4.19727 128.181 6.9954 128.181 10.3265ZM119.454 10.5264C119.454 12.9248 120.586 14.5903 122.385 14.5903C124.251 14.5903 125.317 12.8581 125.317 10.4597C125.317 8.26122 124.317 6.3958 122.385 6.3958C120.52 6.3958 119.454 8.12797 119.454 10.5264Z" fill="#F46F14"/>
<path d="M141.506 10.3265C141.506 14.3238 139.107 16.7222 135.576 16.7222C131.979 16.7222 129.847 13.9907 129.847 10.5264C129.847 6.92877 132.178 4.19727 135.709 4.19727C139.44 4.19727 141.506 6.9954 141.506 10.3265ZM132.778 10.5264C132.778 12.9248 133.911 14.5903 135.709 14.5903C137.575 14.5903 138.641 12.8581 138.641 10.4597C138.641 8.26122 137.641 6.3958 135.709 6.3958C133.844 6.3958 132.778 8.12797 132.778 10.5264Z" fill="#F46F14"/>
<path d="M143.771 4.39719H146.502V9.72696H146.569C146.835 9.26061 147.102 8.86087 147.368 8.39452L150.1 4.33057H153.431L149.434 9.46047L153.631 16.3892H150.433L147.435 11.1926L146.436 12.4585V16.3892H143.704V4.39719H143.771Z" fill="#F46F14"/>
</svg>
