<svg width="168" height="23" viewBox="0 0 168 23" fill="none" xmlns="http://www.w3.org/2000/svg">
<path d="M38.672 12.7696C37.8739 12.1891 36.7856 11.7538 35.6972 11.6812C34.8266 11.6087 33.8834 11.7538 33.0127 12.1166V12.9147V13.8579C33.0853 13.7853 33.2304 13.6402 33.3755 13.5677C34.0285 13.0598 34.8991 12.7696 35.7698 12.6244C36.6405 12.5519 37.5837 12.697 38.4543 13.1323C39.325 13.5677 40.0506 14.1481 40.5584 14.9462C40.1231 14.1481 39.4701 13.35 38.672 12.7696Z" fill="#2E82BC"/>
<path d="M6.67508 16.1795V15.6716V15.1637C5.80442 14.9461 4.93375 14.9461 4.06309 15.1637C3.04732 15.3814 2.1041 15.9618 1.37855 16.6148C0.652997 17.3404 0.217666 18.2111 0 19.0817C0.362776 18.2111 0.943218 17.4129 1.66877 16.9051C2.39432 16.3246 3.33754 15.9618 4.2082 15.8893C5.07886 15.7442 5.94953 15.8893 6.67508 16.1795Z" fill="#2E82BC"/>
<path d="M33.0126 15.7447C32.8675 15.6721 32.7224 15.5996 32.5773 15.527C32.3596 15.4544 32.1419 15.3819 31.9243 15.3093C31.7792 15.2368 31.6341 15.2368 31.4889 15.1642C31.3438 15.0917 31.1262 15.0917 30.9811 15.0191C30.8359 15.0191 30.7634 14.9466 30.6183 14.9466C30.1104 14.8015 29.6025 14.7289 29.0946 14.6563C28.224 14.5112 27.3533 14.5112 26.4826 14.5112C25.4669 14.5838 24.3785 14.7289 23.3628 15.0191C22.7098 15.2368 22.1293 15.4544 21.5489 15.7447C21.1861 15.8898 20.8233 16.1074 20.5331 16.3251C19.0095 17.1958 17.7035 18.4292 16.7602 19.8803C16.6877 19.8078 16.6151 19.8078 16.5426 19.7352C15.164 18.9371 13.4953 18.5018 11.8265 18.5018C11.3912 18.5018 11.0284 18.5018 10.593 18.5743C10.0852 18.6469 9.57727 18.7194 9.06939 18.8645C8.77917 18.9371 8.48895 19.0822 8.19873 19.1548C7.83595 19.2999 7.40062 19.5175 7.03784 19.6627C6.89273 19.7352 6.74762 19.8078 6.60251 19.8803C5.36907 20.6784 4.42586 21.7668 3.91797 23.0002C5.0063 21.9844 6.23973 21.1863 7.54573 20.6784C8.85172 20.1705 10.3028 19.8803 11.6814 19.8803C13.1325 19.8803 14.511 20.098 15.817 20.6784C17.123 21.1863 18.3565 21.9844 19.4448 23.0002C19.4448 23.0002 20.7508 16.9781 26.6277 15.9623C32.6498 14.874 37.0031 18.8645 37.0031 18.8645C36.6404 18.5018 36.3501 18.2115 35.9874 17.9213C36.3501 18.2115 36.7129 18.5018 37.0031 18.8645C36.1325 17.6311 34.6814 16.5428 33.0126 15.7447Z" fill="#2E82BC"/>
<path d="M33.0123 8.34385V7.54574V3.41009L32.4319 3.26498C31.7789 3.11987 31.1985 2.97476 30.5455 2.97476V0.798107L30.0376 0.652997C28.7316 0.217666 27.4981 0 26.4098 0C25.1764 0 24.1606 0.217666 23.2174 0.580442C21.8388 1.08833 20.8231 1.81388 20.1701 2.46688C20.025 2.61199 19.8799 2.7571 19.8073 2.82965C19.5171 2.53943 19.1543 2.17666 18.6464 1.81388C18.066 1.37855 17.2679 0.943218 16.3972 0.580442C15.5265 0.217666 14.4382 0 13.2048 0C12.1164 0 10.883 0.217666 9.57701 0.652997L9.06913 0.798107V3.04732C8.48868 3.04732 7.83569 3.19243 7.18269 3.33754L6.6748 3.41009V9.64984V10.1577V10.6656V12.4069V18.2114C6.81992 18.1388 6.96503 18.0662 7.11014 17.9937C7.47291 17.776 7.83569 17.6309 8.27102 17.4858V17.2681V12.1893V11.6814V10.8833V10.1577V4.49842C8.56124 4.42587 8.85146 4.42587 9.14168 4.42587V10.7382V11.6088V12.0442V12.2618V12.4795V17.1956C9.64957 17.0505 10.1575 16.9779 10.6653 16.9054V16.8328V10.4479V4.49842V3.77287V3.04732V1.81388C11.6086 1.52366 12.4792 1.4511 13.2048 1.4511C14.2205 1.4511 15.0912 1.66877 15.8168 1.88644C16.9051 2.32177 17.7757 2.90221 18.3562 3.48265C18.6464 3.77287 18.8641 3.99054 19.0092 4.13565L19.0817 4.2082V8.19874V8.70662V14.0032L19.2994 13.7855C19.6622 13.4953 20.2426 13.3502 20.6054 13.2776V8.12618V4.13565C20.8231 3.84543 21.2584 3.33754 21.984 2.82965C22.4918 2.46688 23.0723 2.1041 23.8704 1.81388C24.5959 1.52366 25.4666 1.37855 26.4824 1.37855C27.2805 1.37855 28.1511 1.52366 29.0944 1.74133V3.04732V3.77287V4.49842V12.7697C29.6022 12.8423 30.1101 12.9148 30.618 13.0599V12.9874V8.27129V4.42587C30.9082 4.42587 31.1985 4.49842 31.4887 4.49842V8.34385V8.70662V13.1325V13.2776C31.6338 13.3502 31.7789 13.3502 31.924 13.4227C32.1417 13.4953 32.3593 13.5678 32.577 13.6404C32.7221 13.7129 32.8672 13.7855 33.0123 13.858V13.0599V8.34385Z" fill="#F46F14"/>
<path d="M55.5046 17.414C54.5614 17.7042 52.8201 18.1395 51.0788 18.1395C48.6844 18.1395 46.9431 17.5591 45.7097 16.3982C44.4762 15.2373 43.8232 13.5685 43.8232 11.6095C43.8232 7.25623 47.0157 4.7168 51.369 4.7168C53.0378 4.7168 54.4163 5.00702 55.0693 5.36979L54.4163 7.76412C53.6907 7.47389 52.8201 7.18367 51.369 7.18367C48.9021 7.18367 47.0157 8.56222 47.0157 11.4644C47.0157 14.2215 48.757 15.8177 51.1513 15.8177C51.8043 15.8177 52.3848 15.7452 52.6024 15.6001V12.843H50.5709V10.5212H55.5046V17.414Z" fill="#00559F"/>
<path d="M61.3087 4.78857V17.9936H58.334V4.78857H61.3087Z" fill="#00559F"/>
<path d="M67.4759 14.5835L66.5327 17.9936H63.4854L67.4759 4.78857H71.3939L75.5295 17.9936H72.3371L71.3213 14.5835H67.4759ZM70.8134 12.4069L70.0153 9.57722C69.7977 8.77911 69.58 7.83589 69.3623 7.03779H69.2898C69.0721 7.83589 68.927 8.77911 68.7093 9.57722L67.9112 12.4069H70.8134Z" fill="#00559F"/>
<path d="M77.707 17.9936V4.78857H81.1897L83.9468 9.64977C84.7449 11.0283 85.543 12.6971 86.1234 14.1482H86.196C85.9783 12.4069 85.9783 10.6655 85.9783 8.634V4.78857H88.7354V17.9936H85.6156L82.7859 12.9148C81.9878 11.4637 81.1171 9.79488 80.4641 8.27122H80.3916C80.4641 10.0125 80.5367 11.899 80.5367 14.0031V17.9936H77.707Z" fill="#00559F"/>
<path d="M94.2495 7.32801H90.6943V4.78857H100.852V7.25545H97.2243V17.9211H94.2495V7.32801Z" fill="#00559F"/>
<path d="M112.098 12.4074H107.236V15.5272H112.678V17.9941H104.262V4.78906H112.388V7.25594H107.236V10.013H112.098V12.4074Z" fill="#2E82BC"/>
<path d="M115.218 5.00653C116.016 4.86142 117.54 4.71631 119.063 4.71631C120.877 4.71631 121.965 4.86142 122.981 5.44186C123.924 5.94975 124.577 6.82041 124.577 8.05385C124.577 9.21473 123.924 10.3031 122.401 10.8835C123.924 11.2463 125.013 12.4072 125.013 14.1485C125.013 15.3819 124.432 16.3251 123.634 16.9781C122.691 17.7762 121.095 18.2116 118.483 18.2116C117.032 18.2116 115.943 18.139 115.29 17.9939V5.00653H115.218ZM118.193 10.0128H119.136C120.732 10.0128 121.53 9.35984 121.53 8.34407C121.53 7.3283 120.805 6.82041 119.426 6.82041C118.773 6.82041 118.41 6.89296 118.193 6.89296V10.0128ZM118.193 15.8898C118.483 15.9624 118.846 15.9624 119.353 15.9624C120.732 15.9624 121.893 15.4545 121.893 14.0759C121.893 12.7699 120.732 12.2621 119.208 12.2621H118.193V15.8898Z" fill="#2E82BC"/>
<path d="M139.596 11.2464C139.596 15.5997 136.984 18.2117 133.138 18.2117C129.22 18.2117 126.898 15.2369 126.898 11.464C126.898 7.54605 129.438 4.57129 133.283 4.57129C137.346 4.57129 139.596 7.61861 139.596 11.2464ZM130.091 11.464C130.091 14.076 131.324 15.8899 133.283 15.8899C135.315 15.8899 136.476 14.0035 136.476 11.3915C136.476 8.99716 135.387 6.96561 133.283 6.96561C131.252 6.96561 130.091 8.85205 130.091 11.464Z" fill="#2E82BC"/>
<path d="M154.107 11.2464C154.107 15.5997 151.495 18.2117 147.65 18.2117C143.732 18.2117 141.41 15.2369 141.41 11.464C141.41 7.54605 143.95 4.57129 147.795 4.57129C151.858 4.57129 154.107 7.61861 154.107 11.2464ZM144.603 11.464C144.603 14.076 145.836 15.8899 147.795 15.8899C149.827 15.8899 150.987 14.0035 150.987 11.3915C150.987 8.99716 149.899 6.96561 147.795 6.96561C145.763 6.96561 144.603 8.85205 144.603 11.464Z" fill="#2E82BC"/>
<path d="M156.574 4.78886H159.548V10.5933H159.621C159.911 10.0854 160.201 9.65006 160.492 9.14218L163.466 4.71631H167.094L162.741 10.3031L167.312 17.8488H163.829L160.564 12.1895L159.476 13.568V17.8488H156.501V4.78886H156.574Z" fill="#2E82BC"/>
</svg>
