<svg width="144" height="38" viewBox="0 0 144 38" fill="none" xmlns="http://www.w3.org/2000/svg">
<path d="M53.7328 14.3964H52.5554L48.0838 7.55178V14.3964H46.9065V5.51425H48.0838L52.5676 12.3894V5.51425H53.7328V14.3964ZM63.5318 14.3964H62.3544V10.2909H57.8767V14.3964H56.7054V5.51425H57.8767V9.33309H62.3544V5.51425H63.5318V14.3964ZM71.5189 12.0783H67.7977L66.9619 14.3964H65.7541L69.1459 5.51425H70.1708L73.5687 14.3964H72.3669L71.5189 12.0783ZM68.1515 11.1144H71.1712L69.6583 6.96004L68.1515 11.1144ZM70.3294 4.92861H69.3594L67.7855 3.13509H69.1459L70.3294 4.92861ZM82.5458 8.91827L84.6749 5.51425H86.0536L83.2474 9.91873L86.1207 14.3964H84.7298L82.5458 10.9314L80.3497 14.3964H78.9649L81.8443 9.91873L79.032 5.51425H80.4046L82.5458 8.91827ZM94.6264 5.51425V11.5536C94.6223 12.3914 94.358 13.0767 93.8333 13.6095C93.3128 14.1422 92.6051 14.4412 91.7104 14.5062L91.3993 14.5184C90.4273 14.5184 89.6525 14.2561 89.075 13.7315C88.4975 13.2068 88.2047 12.485 88.1966 11.5658V5.51425H89.3556V11.5292C89.3556 12.1718 89.5325 12.672 89.8864 13.0299C90.2402 13.3838 90.7445 13.5607 91.3993 13.5607C92.0622 13.5607 92.5685 13.3838 92.9183 13.0299C93.2721 12.6761 93.449 12.1779 93.449 11.5353V5.51425H94.6264ZM102.138 12.0783H98.4165L97.5807 14.3964H96.3728L99.7647 5.51425H100.79L104.187 14.3964H102.986L102.138 12.0783ZM98.7703 11.1144H101.79L100.277 6.96004L98.7703 11.1144ZM99.844 3.3303H100.771L102.54 4.93471H101.339L100.308 3.96475L99.2705 4.93471H98.0626L99.844 3.3303ZM102.955 2.27494H104.175L102.949 3.85494H102.089L102.955 2.27494ZM111.619 6.47811H108.764V14.3964H107.599V6.47811H104.75V5.51425H111.619V6.47811ZM117.577 14.3964V5.51425H120.481C121.445 5.51425 122.168 5.71353 122.652 6.11208C123.14 6.51064 123.385 7.10035 123.385 7.8812C123.385 8.29603 123.267 8.66408 123.031 8.98537C122.795 9.30259 122.474 9.54864 122.067 9.72352C122.547 9.85773 122.925 10.1139 123.201 10.4922C123.482 10.8663 123.622 11.3137 123.622 11.8343C123.622 12.6314 123.364 13.2577 122.848 13.7132C122.331 14.1687 121.601 14.3964 120.658 14.3964H117.577ZM118.748 10.2421V13.4387H120.682C121.227 13.4387 121.656 13.2984 121.969 13.0177C122.286 12.733 122.445 12.3426 122.445 11.8465C122.445 10.7769 121.863 10.2421 120.7 10.2421H118.748ZM118.748 9.30259H120.517C121.03 9.30259 121.438 9.17448 121.744 8.91827C122.053 8.66205 122.207 8.31433 122.207 7.8751C122.207 7.38707 122.065 7.03324 121.78 6.81363C121.495 6.58995 121.062 6.47811 120.481 6.47811H118.748V9.30259ZM131.158 12.0783H127.437L126.601 14.3964H125.393L128.785 5.51425H129.81L133.208 14.3964H132.006L131.158 12.0783ZM127.791 11.1144H130.81L129.298 6.96004L127.791 11.1144ZM128.944 4.8371L128.938 3.90374C129.243 3.88341 129.466 3.84274 129.609 3.78173C129.751 3.72073 129.822 3.61092 129.822 3.45231C129.822 3.2937 129.729 3.17576 129.542 3.09849C129.359 3.01715 129.115 2.97648 128.81 2.97648L128.852 2.32984C129.458 2.32984 129.918 2.43558 130.231 2.64706C130.544 2.85447 130.701 3.13102 130.701 3.47671C130.701 3.7248 130.621 3.93018 130.463 4.09285C130.304 4.25553 130.068 4.35924 129.755 4.40397L129.749 4.8371H128.944ZM142.122 14.3964H140.945L136.473 7.55178V14.3964H135.296V5.51425H136.473L140.957 12.3894V5.51425H142.122V14.3964Z" fill="#5E6164"/>
<path d="M49.8041 26.49L51.9332 23.086H53.3119L50.5057 27.4905L53.379 31.9682H51.9881L49.8041 28.5032L47.608 31.9682H46.2232L49.1026 27.4905L46.2903 23.086H47.6629L49.8041 26.49ZM60.5365 29.65H56.8152L55.9795 31.9682H54.7716L58.1634 23.086H59.1883L62.5862 31.9682H61.3844L60.5365 29.65ZM57.1691 28.6862H60.1888L58.6759 24.5318L57.1691 28.6862ZM60.5487 22.3784V22.4394H59.6153L58.7003 21.4023L57.7913 22.4394H56.8579V22.3662L58.3586 20.7069H59.0419L60.5487 22.3784ZM66.8094 27.5454L69.1276 23.086H70.4575L67.3951 28.6557V31.9682H66.2238V28.6557L63.1614 23.086H64.5035L66.8094 27.5454ZM76.4882 31.9682V23.086H78.9954C79.7681 23.086 80.4514 23.2568 81.0451 23.5984C81.6389 23.9401 82.0964 24.4261 82.4177 25.0564C82.7431 25.6868 82.9078 26.4107 82.9119 27.2282V27.7955C82.9119 28.6333 82.7492 29.3674 82.4238 29.9978C82.1025 30.6281 81.641 31.1121 81.039 31.4497C80.4412 31.7872 79.7437 31.9601 78.9466 31.9682H76.4882ZM77.6594 24.0499V31.0104H78.8917C79.7946 31.0104 80.4961 30.7298 80.9963 30.1686C81.5006 29.6073 81.7528 28.8082 81.7528 27.7711V27.2526C81.7528 26.244 81.5149 25.4611 81.039 24.9039C80.5673 24.3427 79.8962 24.058 79.0259 24.0499H77.6594ZM91.8324 23.086V24.3854C92.3001 24.3407 92.6315 24.18 92.8268 23.9035C93.026 23.6228 93.1257 23.1836 93.1257 22.5858H94.0956C94.0956 23.4398 93.9147 24.0804 93.5527 24.5074C93.1948 24.9304 92.6214 25.1662 91.8324 25.215V29.1315C91.8283 29.9408 91.5782 30.6098 91.082 31.1385C90.5859 31.6672 89.9087 31.9763 89.0506 32.0658L88.6053 32.0902C87.6333 32.0902 86.8585 31.8279 86.281 31.3032C85.7035 30.7786 85.4107 30.0567 85.4026 29.1376V23.086H86.5616V29.101C86.5616 29.7436 86.7386 30.2438 87.0924 30.6017C87.4462 30.9555 87.9505 31.1324 88.6053 31.1324C89.2682 31.1324 89.7745 30.9555 90.1243 30.6017C90.4781 30.2479 90.655 29.7497 90.655 29.1071V23.086H91.8324ZM88.0684 33.5116C88.0684 33.3286 88.1233 33.174 88.2332 33.048C88.347 32.9219 88.5138 32.8588 88.7334 32.8588C88.953 32.8588 89.1197 32.9219 89.2336 33.048C89.3475 33.174 89.4044 33.3286 89.4044 33.5116C89.4044 33.6946 89.3475 33.8471 89.2336 33.9691C89.1197 34.0911 88.953 34.1521 88.7334 34.1521C88.5138 34.1521 88.347 34.0911 88.2332 33.9691C88.1233 33.8471 88.0684 33.6946 88.0684 33.5116ZM101.985 31.9682H100.808L96.3362 25.1235V31.9682H95.1589V23.086H96.3362L100.82 29.9612V23.086H101.985V31.9682ZM111.516 30.803C111.215 31.2341 110.794 31.5574 110.253 31.773C109.716 31.9845 109.09 32.0902 108.374 32.0902C107.65 32.0902 107.008 31.9214 106.446 31.5839C105.885 31.2422 105.45 30.7583 105.141 30.132C104.836 29.5057 104.679 28.7797 104.671 27.9541V27.1794C104.671 25.8414 104.982 24.8043 105.604 24.0682C106.231 23.3321 107.109 22.964 108.24 22.964C109.167 22.964 109.913 23.2019 110.479 23.6777C111.044 24.1495 111.39 24.8206 111.516 25.6909H110.344C110.125 24.5155 109.425 23.9279 108.246 23.9279C107.461 23.9279 106.865 24.2044 106.459 24.7575C106.056 25.3066 105.853 26.1037 105.848 27.1489V27.8748C105.848 28.8712 106.076 29.6643 106.532 30.254C106.987 30.8396 107.603 31.1324 108.38 31.1324C108.819 31.1324 109.204 31.0836 109.533 30.986C109.863 30.8884 110.135 30.7237 110.351 30.4919V28.4971H108.295V27.5454H111.516V30.803Z" fill="#5E6164"/>
<mask id="mask0" mask-type="alpha" maskUnits="userSpaceOnUse" x="0" y="0" width="36" height="37">
<path fill-rule="evenodd" clip-rule="evenodd" d="M0 0.980423H35.9917V36.6466H0V0.980423Z" fill="white"/>
</mask>
<g mask="url(#mask0)">
<path fill-rule="evenodd" clip-rule="evenodd" d="M17.9959 36.6466C17.2801 35.5302 15.8123 33.9509 14.0764 33.9016H0V0.98027H14.4076C15.7626 1.05256 17.0164 1.68841 17.9959 2.63888C18.9754 1.68841 20.2292 1.05256 21.5846 0.98027H35.9918V33.9016H21.9154C20.1799 33.9509 18.7117 35.5302 17.9959 36.6466ZM17.9959 5.96454C17.1056 5.24408 15.8725 3.88491 14.3289 3.88491H2.92516V30.9941H14.2377C15.8343 30.9941 17.1727 31.6016 17.9959 32.7258C18.8191 31.6016 20.1576 30.9941 21.7546 30.9941H33.0671V3.88491H21.663C20.1194 3.88491 18.8863 5.24408 17.9959 5.96454Z" fill="#5E6164"/>
</g>
<mask id="mask1" mask-type="alpha" maskUnits="userSpaceOnUse" x="0" y="0" width="37" height="36">
<path fill-rule="evenodd" clip-rule="evenodd" d="M0 35.9267H36.0614V0.91011H0V35.9267Z" fill="white"/>
</mask>
<g mask="url(#mask1)">
<path fill-rule="evenodd" clip-rule="evenodd" d="M5.63477 29.1494H9.27522V25.4558H5.63477V29.1494ZM31.5395 11.7018V11.7204L31.5538 11.7248L31.5395 11.7712V12.5311H18.9936V18.6472H18.1762V12.5311H13.7179V11.7018L18.5871 7.68774L31.4802 11.7018H31.5395ZM15.1139 11.7017H18.1764V9.0815L15.1139 11.7017ZM18.9931 8.68042V11.7018H28.694L18.9931 8.68042ZM27.8991 20.1034H31.5396V16.4102H27.8991V20.1034ZM10.0922 20.1034H13.733V16.4102H10.0922V20.1034ZM5.63477 20.1034H9.27522V16.4102H5.63477V20.1034ZM5.63477 24.626H9.27522V20.9328H5.63477V24.626ZM10.0922 24.626H13.733V20.9328H10.0922V24.626ZM14.5495 24.626H18.19V20.9328H14.5495V24.626ZM19.0069 24.626H22.6478V20.9328H19.0069V24.626ZM27.8991 29.1494H31.5396V25.4558H27.8991V29.1494ZM23.4412 29.1494H27.0816V25.4558H23.4412V29.1494ZM19.0069 29.1494H22.6478V25.4558H19.0069V29.1494ZM14.5495 29.1494H18.19V25.4558H14.5495V29.1494ZM10.0922 29.1494H13.733V25.4558H10.0922V29.1494Z" fill="#5E6164"/>
</g>
</svg>
