<svg width="144" height="38" fill="none" xmlns="http://www.w3.org/2000/svg"><path d="M53.733 14.396h-1.178l-4.471-6.844v6.844h-1.178V5.514h1.178l4.484 6.875V5.514h1.165v8.882zm9.799 0h-1.178v-4.105h-4.477v4.105h-1.172V5.514h1.172v3.82h4.477v-3.82h1.178v8.882zm7.987-2.318h-3.721l-.836 2.318h-1.208l3.392-8.882h1.025l3.398 8.882h-1.202l-.848-2.318zm-3.368-.964h3.02L69.658 6.96l-1.507 4.154zM70.33 4.93h-.97l-1.573-1.794h1.36L70.33 4.93zm12.217 3.99l2.129-3.405h1.379L83.247 9.92l2.874 4.477H84.73l-2.184-3.465-2.196 3.465h-1.385l2.88-4.477-2.813-4.405h1.373l2.14 3.404zm12.08-3.405v6.04c-.004.837-.268 1.523-.793 2.056-.52.532-1.228.831-2.123.896l-.31.012c-.973 0-1.748-.262-2.325-.787-.578-.524-.87-1.246-.878-2.165V5.514h1.159v6.015c0 .643.177 1.143.53 1.5.354.355.859.532 1.513.532.663 0 1.17-.177 1.52-.531.353-.354.53-.852.53-1.495v-6.02h1.177zm7.512 6.564h-3.722l-.835 2.318h-1.208l3.392-8.882h1.025l3.397 8.882h-1.201l-.848-2.318zm-3.368-.964h3.02l-1.513-4.154-1.507 4.154zm1.074-7.784h.927l1.769 1.605h-1.201l-1.031-.97-1.038.97h-1.207l1.781-1.605zm3.111-1.055h1.22l-1.226 1.58h-.86l.866-1.58zm8.664 4.203h-2.855v7.918H107.6V6.478h-2.849v-.964h6.869v.964zm5.958 7.918V5.514h2.904c.964 0 1.687.2 2.171.598.488.399.733.988.733 1.77 0 .414-.118.782-.354 1.103a2.303 2.303 0 01-.964.739c.48.134.858.39 1.134.768.281.374.421.822.421 1.342 0 .797-.258 1.424-.774 1.88-.517.455-1.247.682-2.19.682h-3.081zm1.171-4.154v3.197h1.934c.545 0 .974-.14 1.287-.421.317-.285.476-.675.476-1.171 0-1.07-.582-1.605-1.745-1.605h-1.952zm0-.94h1.769c.513 0 .921-.128 1.227-.384.309-.256.463-.604.463-1.043 0-.488-.142-.842-.427-1.061-.285-.224-.718-.336-1.299-.336h-1.733v2.825zm12.41 2.776h-3.721l-.836 2.318h-1.208l3.392-8.882h1.025l3.398 8.882h-1.202l-.848-2.318zm-3.367-.964h3.019l-1.512-4.154-1.507 4.154zm1.153-6.277l-.006-.933c.305-.02.528-.061.671-.122a.33.33 0 00.213-.33c0-.158-.093-.276-.28-.354-.183-.08-.427-.122-.732-.122l.042-.646c.606 0 1.066.106 1.379.317.313.207.47.484.47.83a.85.85 0 01-.238.616c-.159.163-.395.266-.708.311l-.006.433h-.805zm13.178 9.56h-1.177l-4.472-6.845v6.844h-1.177V5.514h1.177l4.484 6.875V5.514h1.165v8.882zM49.804 26.49l2.13-3.404h1.378l-2.806 4.405 2.873 4.477h-1.39l-2.185-3.465-2.196 3.465h-1.385l2.88-4.477-2.813-4.405h1.373l2.141 3.404zm10.732 3.16h-3.72l-.837 2.318h-1.207l3.391-8.882h1.025l3.398 8.882h-1.202l-.848-2.318zm-3.367-.964h3.02l-1.513-4.154-1.507 4.154zm3.38-6.308v.061h-.934l-.915-1.037-.909 1.037h-.933v-.073l1.5-1.66h.684l1.507 1.672zm6.26 5.167l2.319-4.459h1.33l-3.063 5.57v3.312h-1.171v-3.312l-3.063-5.57h1.343l2.305 4.46zm9.68 4.423v-8.882h2.506c.773 0 1.456.17 2.05.512a3.447 3.447 0 011.373 1.458c.325.63.49 1.355.494 2.172v.567c0 .838-.163 1.572-.488 2.203a3.388 3.388 0 01-1.385 1.452c-.598.337-1.295.51-2.092.518h-2.459zm1.17-7.918v6.96h1.233c.903 0 1.604-.28 2.104-.841.505-.562.757-1.36.757-2.398v-.518c0-1.009-.238-1.792-.714-2.35-.472-.56-1.143-.845-2.013-.853h-1.367zm14.173-.964v1.3c.468-.045.8-.206.995-.482.199-.281.299-.72.299-1.318h.97c0 .854-.181 1.494-.543 1.921-.358.423-.932.66-1.72.708v3.916c-.005.81-.255 1.479-.751 2.008-.496.528-1.173.837-2.031.927l-.446.024c-.972 0-1.746-.262-2.324-.787-.578-.524-.87-1.246-.878-2.165v-6.052h1.159v6.015c0 .643.177 1.143.53 1.5.354.355.859.531 1.513.531.663 0 1.17-.177 1.52-.53.353-.354.53-.852.53-1.495v-6.021h1.177zm-3.764 10.426a.68.68 0 01.165-.464c.114-.126.28-.19.5-.19.22 0 .387.064.5.19.114.126.171.28.171.464a.644.644 0 01-.17.457c-.114.122-.281.183-.5.183-.22 0-.387-.06-.5-.183a.658.658 0 01-.166-.457zm13.917-1.544h-1.177l-4.472-6.845v6.845H95.16v-8.882h1.177l4.484 6.875v-6.875h1.165v8.882zm9.531-1.165c-.301.431-.722.754-1.263.97-.537.212-1.163.317-1.879.317-.724 0-1.366-.169-1.928-.506a3.434 3.434 0 01-1.305-1.452c-.305-.626-.462-1.352-.47-2.178v-.775c0-1.338.311-2.375.933-3.11.627-.737 1.505-1.105 2.636-1.105.927 0 1.673.238 2.239.714.565.471.911 1.143 1.037 2.013h-1.172c-.219-1.175-.919-1.763-2.098-1.763-.785 0-1.381.276-1.787.83-.403.549-.606 1.346-.611 2.39v.727c0 .996.228 1.79.684 2.379.455.586 1.071.878 1.848.878a4.06 4.06 0 001.153-.146c.33-.098.602-.262.818-.494v-1.995h-2.056v-.952h3.221v3.258z" fill="#5E6164"/><mask id="a" maskUnits="userSpaceOnUse" x="0" y="0" width="36" height="37"><path fill-rule="evenodd" clip-rule="evenodd" d="M0 .98h35.992v35.667H0V.98z" fill="#fff"/></mask><g mask="url(#a)"><path fill-rule="evenodd" clip-rule="evenodd" d="M17.996 36.647c-.716-1.117-2.184-2.696-3.92-2.745H0V.98h14.408c1.355.073 2.608.708 3.588 1.659.98-.95 2.233-1.586 3.589-1.659h14.407v32.922H21.915c-1.735.049-3.203 1.628-3.92 2.745zm0-30.682c-.89-.72-2.123-2.08-3.667-2.08H2.925v27.11h11.313c1.596 0 2.935.607 3.758 1.73.823-1.123 2.162-1.73 3.759-1.73h11.312V3.884H21.663c-1.544 0-2.777 1.36-3.667 2.08z" fill="#5E6164"/></g><mask id="b" maskUnits="userSpaceOnUse" x="0" y="0" width="37" height="36"><path fill-rule="evenodd" clip-rule="evenodd" d="M0 35.927h36.061V.91H0v35.017z" fill="#fff"/></mask><g mask="url(#b)"><path fill-rule="evenodd" clip-rule="evenodd" d="M5.635 29.15h3.64v-3.694h-3.64v3.693zm25.904-17.448v.018l.015.005-.014.046v.76H18.994v6.116h-.818v-6.116h-4.458v-.83l4.87-4.013 12.892 4.014h.06zm-16.425 0h3.062v-2.62l-3.062 2.62zm3.88-3.022v3.022h9.7l-9.7-3.022zm8.905 11.423h3.64V16.41H27.9v3.693zm-17.807 0h3.641V16.41h-3.64v3.693zm-4.457 0h3.64V16.41h-3.64v3.693zm0 4.523h3.64v-3.693h-3.64v3.693zm4.457 0h3.641v-3.693h-3.64v3.693zm4.457 0h3.641v-3.693h-3.64v3.693zm4.458 0h3.64v-3.693h-3.64v3.693zm8.892 4.523h3.64v-3.693H27.9v3.693zm-4.458 0h3.64v-3.693h-3.64v3.693zm-4.434 0h3.64v-3.693h-3.64v3.693zm-4.458 0h3.641v-3.693h-3.64v3.693zm-4.457 0h3.641v-3.693h-3.64v3.693z" fill="#5E6164"/></g></svg>