<svg width="168" height="23" fill="none" xmlns="http://www.w3.org/2000/svg"><path d="M38.672 12.77c-.798-.58-1.886-1.016-2.975-1.089a5.816 5.816 0 00-2.684.436v1.741c.072-.073.217-.218.363-.29.653-.508 1.523-.798 2.394-.944a5.077 5.077 0 012.684.508c.871.436 1.597 1.016 2.104 1.814-.435-.798-1.088-1.596-1.886-2.176zM6.675 16.18v-1.016a5.307 5.307 0 00-2.612 0c-1.016.217-1.959.798-2.684 1.45A5.27 5.27 0 000 19.083c.363-.87.943-1.67 1.669-2.177a4.842 4.842 0 012.54-1.016c.87-.145 1.74 0 2.466.29zm26.338-.435l-.436-.218-.653-.218c-.145-.072-.29-.072-.435-.145-.145-.072-.363-.072-.508-.145-.145 0-.218-.072-.363-.072-.508-.145-1.015-.218-1.523-.29-.871-.146-1.742-.146-2.612-.146-1.016.073-2.105.218-3.12.508-.653.218-1.234.435-1.814.726a4.623 4.623 0 00-1.016.58 11.073 11.073 0 00-3.773 3.555c-.072-.072-.145-.072-.217-.145-1.379-.798-3.048-1.233-4.716-1.233-.436 0-.799 0-1.234.072-.508.073-1.016.145-1.524.29-.29.073-.58.218-.87.29-.363.146-.798.363-1.161.509l-.435.217c-1.234.798-2.177 1.887-2.685 3.12 1.088-1.016 2.322-1.814 3.628-2.322s2.757-.798 4.135-.798c1.452 0 2.83.218 4.136.798 1.306.508 2.54 1.306 3.628 2.322 0 0 1.306-6.022 7.183-7.038 6.022-1.088 10.375 2.902 10.375 2.902-.363-.362-.653-.652-1.016-.943.363.29.726.58 1.016.944-.87-1.234-2.322-2.322-3.99-3.12z" fill="#2E82BC"/><path d="M33.012 8.344V3.41l-.58-.145c-.653-.145-1.234-.29-1.887-.29V.798l-.507-.145C28.732.218 27.498 0 26.41 0c-1.234 0-2.25.218-3.193.58-1.378.508-2.394 1.234-3.047 1.887l-.363.363a8.86 8.86 0 00-1.16-1.016c-.581-.435-1.38-.87-2.25-1.234-.87-.362-1.959-.58-3.192-.58-1.089 0-2.322.218-3.628.653l-.508.145v2.25c-.58 0-1.233.144-1.886.29l-.508.072v14.801l.435-.217c.363-.218.726-.363 1.161-.508V4.498c.29-.072.58-.072.87-.072v12.77c.509-.146 1.017-.218 1.524-.29V1.813a8.552 8.552 0 012.54-.363c1.015 0 1.886.218 2.612.435 1.088.436 1.959 1.016 2.54 1.597l.652.653.073.072v9.796l.217-.217c.363-.29.944-.436 1.306-.508V4.136a6.06 6.06 0 011.379-1.306 7.586 7.586 0 011.886-1.016c.726-.29 1.597-.435 2.612-.435.799 0 1.67.145 2.612.362V12.77c.508.072 1.016.145 1.524.29V4.426c.29 0 .58.072.87.072v8.78c.146.072.29.072.436.145l.653.217.435.218V8.344z" fill="#F46F14"/><path d="M55.505 17.414c-.944.29-2.685.726-4.426.726-2.395 0-4.136-.58-5.37-1.742-1.233-1.16-1.886-2.83-1.886-4.788 0-4.354 3.193-6.893 7.546-6.893 1.669 0 3.047.29 3.7.653l-.653 2.394c-.725-.29-1.596-.58-3.047-.58-2.467 0-4.353 1.378-4.353 4.28 0 2.758 1.741 4.354 4.135 4.354.653 0 1.234-.073 1.451-.218v-2.757h-2.031v-2.322h4.934v6.893zm5.804-12.625v13.205h-2.975V4.789h2.975zm6.167 9.795l-.943 3.41h-3.048l3.99-13.205h3.919l4.135 13.205h-3.192l-1.016-3.41h-3.845zm3.337-2.177l-.798-2.83c-.217-.798-.435-1.741-.653-2.54h-.072c-.218.799-.363 1.742-.58 2.54l-.799 2.83h2.902zm6.894 5.587V4.789h3.483l2.757 4.86a36.621 36.621 0 012.176 4.5h.073c-.218-1.742-.218-3.483-.218-5.515V4.789h2.757v13.205h-3.12l-2.83-5.08c-.797-1.45-1.668-3.12-2.32-4.643h-.073c.072 1.741.145 3.628.145 5.732v3.99h-2.83zM94.25 7.328h-3.556v-2.54h10.158v2.467h-3.628v10.666H94.25V7.328z" fill="#00559F"/><path d="M112.098 12.407h-4.862v3.12h5.442v2.467h-8.416V4.79h8.126v2.467h-5.152v2.757h4.862v2.394zm3.12-7.4c.798-.146 2.322-.29 3.845-.29 1.814 0 2.902.144 3.918.725.943.508 1.596 1.378 1.596 2.612 0 1.16-.653 2.25-2.176 2.83 1.523.362 2.612 1.523 2.612 3.264 0 1.234-.581 2.177-1.379 2.83-.943.798-2.539 1.234-5.151 1.234-1.451 0-2.54-.073-3.193-.218V5.007h-.072zm2.975 5.006h.943c1.596 0 2.394-.653 2.394-1.669s-.725-1.524-2.104-1.524c-.653 0-1.016.073-1.233.073v3.12zm0 5.877c.29.072.653.072 1.16.072 1.379 0 2.54-.508 2.54-1.886 0-1.306-1.161-1.814-2.685-1.814h-1.015v3.628zm21.403-4.644c0 4.354-2.612 6.966-6.458 6.966-3.918 0-6.24-2.975-6.24-6.748 0-3.918 2.54-6.893 6.385-6.893 4.063 0 6.313 3.048 6.313 6.675zm-9.505.218c0 2.612 1.233 4.426 3.192 4.426 2.032 0 3.193-1.886 3.193-4.498 0-2.395-1.089-4.426-3.193-4.426-2.031 0-3.192 1.886-3.192 4.498zm24.016-.218c0 4.354-2.612 6.966-6.457 6.966-3.918 0-6.24-2.975-6.24-6.748 0-3.918 2.54-6.893 6.385-6.893 4.063 0 6.312 3.048 6.312 6.675zm-9.504.218c0 2.612 1.233 4.426 3.192 4.426 2.032 0 3.192-1.886 3.192-4.498 0-2.395-1.088-4.426-3.192-4.426-2.032 0-3.192 1.886-3.192 4.498zm11.971-6.675h2.974v5.804h.073c.29-.508.58-.943.871-1.45l2.974-4.427h3.628l-4.353 5.587 4.571 7.546h-3.483l-3.265-5.66-1.088 1.379v4.28h-2.975V4.789h.073z" fill="#2E82BC"/></svg>