<svg width="250" height="68" fill="none" xmlns="http://www.w3.org/2000/svg"><path fill="#fff" d="M0 0h250v68H0z"/><path d="M69.614 35.73c-.982-.715-2.322-1.251-3.662-1.34a7.162 7.162 0 00-3.305.535v2.144c.089-.089.267-.268.446-.357.804-.625 1.876-.983 2.948-1.161a6.25 6.25 0 013.305.625c1.072.536 1.966 1.25 2.591 2.233-.536-.982-1.34-1.965-2.323-2.68zm-39.395 4.198v-1.25a6.532 6.532 0 00-3.216 0c-1.251.268-2.412.982-3.306 1.786A6.487 6.487 0 0022 43.502c.447-1.073 1.161-2.055 2.055-2.68a5.963 5.963 0 013.126-1.251c1.072-.179 2.144 0 3.038.357zm32.427-.536l-.536-.268-.804-.268c-.178-.09-.357-.09-.536-.178-.178-.09-.446-.09-.625-.18-.178 0-.268-.088-.447-.088-.625-.18-1.25-.268-1.876-.358-1.072-.178-2.144-.178-3.216-.178-1.25.089-2.59.267-3.84.625-.805.268-1.52.536-2.234.893a5.693 5.693 0 00-1.25.715 13.632 13.632 0 00-4.646 4.377c-.09-.09-.179-.09-.268-.178-1.697-.983-3.752-1.52-5.807-1.52-.536 0-.982 0-1.518.09-.626.09-1.25.179-1.876.358-.358.089-.715.267-1.072.357-.447.178-.983.447-1.43.625l-.535.268c-1.52.983-2.68 2.323-3.306 3.841 1.34-1.25 2.859-2.233 4.467-2.858 1.608-.626 3.394-.983 5.092-.983 1.786 0 3.484.268 5.092.983 1.608.625 3.126 1.608 4.466 2.858 0 0 1.608-7.414 8.844-8.665 7.415-1.34 12.775 3.574 12.775 3.574-.447-.447-.804-.805-1.251-1.162.447.357.893.715 1.25 1.161-1.071-1.518-2.858-2.858-4.913-3.84z" fill="#2E82BC"/><path d="M62.646 30.28v-6.075l-.714-.178c-.804-.179-1.519-.358-2.323-.358v-2.68l-.625-.178c-1.608-.536-3.127-.804-4.467-.804-1.519 0-2.77.268-3.93.714-1.698.626-2.949 1.52-3.753 2.323l-.446.447c-.357-.357-.804-.804-1.43-1.25-.714-.537-1.697-1.073-2.769-1.52-1.072-.446-2.412-.714-3.93-.714-1.34 0-2.859.268-4.467.804l-.625.178v2.77c-.715 0-1.519.178-2.323.357l-.625.09v18.223l.536-.268c.446-.268.893-.446 1.43-.625V25.545c.356-.089.714-.089 1.071-.089V41.18c.625-.18 1.25-.268 1.876-.358V22.24a10.53 10.53 0 013.127-.446c1.25 0 2.322.267 3.216.535 1.34.537 2.412 1.251 3.126 1.966l.804.804.09.09v12.058l.268-.267c.446-.357 1.16-.536 1.608-.625V25.099c.267-.358.803-.983 1.697-1.608.625-.447 1.34-.893 2.323-1.25.893-.358 1.965-.537 3.215-.537.983 0 2.055.179 3.216.447v13.578c.626.09 1.251.179 1.876.358V25.456c.358 0 .715.09 1.072.09v10.809c.179.089.358.089.536.178l.804.268.536.268V30.28z" fill="#F46F14"/><path d="M90.34 41.448c-1.162.357-3.306.893-5.45.893-2.948 0-5.092-.715-6.61-2.144-1.519-1.43-2.323-3.484-2.323-5.896 0-5.36 3.93-8.487 9.29-8.487 2.055 0 3.752.358 4.556.804L89 29.566c-.894-.357-1.966-.714-3.752-.714-3.038 0-5.36 1.697-5.36 5.27 0 3.395 2.144 5.36 5.092 5.36.804 0 1.518-.09 1.786-.268V35.82h-2.501v-2.86h6.075v8.487zm7.146-15.545V42.16h-3.663V25.903h3.663zm7.593 12.06l-1.161 4.198h-3.752l4.913-16.258h4.824l5.092 16.258h-3.93l-1.251-4.198h-4.735zm4.11-2.68l-.983-3.484c-.268-.983-.536-2.144-.804-3.127h-.089c-.268.983-.447 2.144-.715 3.127l-.983 3.484h3.574zm8.486 6.878V25.903h4.288l3.394 5.985a44.948 44.948 0 012.68 5.539h.09c-.268-2.144-.268-4.288-.268-6.79v-4.734h3.394V42.16h-3.841l-3.484-6.253c-.983-1.787-2.055-3.841-2.859-5.717h-.089c.089 2.144.179 4.466.179 7.057v4.913h-3.484zm20.368-13.131h-4.377v-3.127h12.507v3.037h-4.467v13.132h-3.663V29.029z" fill="#00559F"/><path d="M160.019 35.283h-5.985v3.841h6.7v3.037h-10.363V25.903h10.005v3.037h-6.342v3.395h5.985v2.948zm3.841-9.113c.983-.178 2.859-.357 4.735-.357 2.233 0 3.573.18 4.824.894 1.161.625 1.965 1.697 1.965 3.216 0 1.43-.804 2.77-2.68 3.484 1.876.446 3.216 1.876 3.216 4.02 0 1.518-.714 2.68-1.697 3.484-1.161.982-3.127 1.518-6.343 1.518-1.786 0-3.126-.09-3.93-.268v-15.99h-.09zm3.663 6.165h1.161c1.966 0 2.948-.804 2.948-2.055 0-1.25-.893-1.876-2.59-1.876-.804 0-1.251.09-1.519.09v3.84zm0 7.236c.357.089.804.089 1.429.089 1.698 0 3.127-.625 3.127-2.323 0-1.608-1.429-2.233-3.305-2.233h-1.251v4.467zm26.353-5.718c0 5.36-3.216 8.576-7.95 8.576-4.824 0-7.683-3.662-7.683-8.308 0-4.824 3.127-8.486 7.861-8.486 5.003 0 7.772 3.752 7.772 8.218zm-11.702.268c0 3.216 1.518 5.45 3.93 5.45 2.502 0 3.931-2.323 3.931-5.539 0-2.948-1.34-5.45-3.931-5.45-2.501 0-3.93 2.323-3.93 5.54zm29.569-.268c0 5.36-3.216 8.576-7.951 8.576-4.824 0-7.683-3.662-7.683-8.308 0-4.824 3.127-8.486 7.862-8.486 5.002 0 7.772 3.752 7.772 8.218zm-11.703.268c0 3.216 1.519 5.45 3.931 5.45 2.501 0 3.93-2.323 3.93-5.539 0-2.948-1.34-5.45-3.93-5.45-2.502 0-3.931 2.323-3.931 5.54zm14.74-8.218h3.662v7.146h.09c.357-.625.714-1.16 1.072-1.786l3.662-5.45h4.467l-5.36 6.88 5.628 9.29h-4.288l-4.02-6.968-1.34 1.697v5.27h-3.663v-16.08h.09z" fill="#F46F14"/></svg>