<svg width="154" height="22" fill="none" xmlns="http://www.w3.org/2000/svg"><path d="M35.51 11.726a5.422 5.422 0 00-2.731-1 5.34 5.34 0 00-2.466.4v1.599c.067-.067.2-.2.334-.267.6-.466 1.399-.732 2.198-.866a4.66 4.66 0 012.465.467c.8.4 1.466.932 1.932 1.665-.4-.733-1-1.466-1.732-1.998zM6.13 14.857v-.933c-.8-.2-1.6-.2-2.4 0-.932.2-1.798.733-2.464 1.333A4.838 4.838 0 000 17.521c.333-.8.866-1.533 1.532-1.999a4.447 4.447 0 012.332-.933c.8-.133 1.599 0 2.265.267zm24.183-.4l-.4-.2-.6-.2c-.132-.066-.266-.066-.399-.133s-.333-.067-.466-.133c-.134 0-.2-.067-.333-.067-.467-.133-.933-.2-1.4-.266-.799-.133-1.598-.133-2.398-.133-.933.066-1.932.2-2.865.466-.6.2-1.132.4-1.665.666a4.253 4.253 0 00-.933.533 10.167 10.167 0 00-3.464 3.264c-.067-.066-.133-.066-.2-.133-1.266-.733-2.798-1.132-4.33-1.132-.4 0-.733 0-1.133.066-.466.067-.933.134-1.4.267-.266.066-.532.2-.799.266-.333.133-.732.333-1.066.467l-.4.2c-1.132.732-1.998 1.732-2.464 2.864.999-.933 2.132-1.665 3.33-2.132 1.2-.466 2.532-.732 3.798-.732 1.333 0 2.598.2 3.798.732 1.199.467 2.332 1.2 3.33 2.132 0 0 1.2-5.53 6.596-6.462 5.53-1 9.527 2.665 9.527 2.665-.333-.333-.6-.6-.932-.866.333.266.666.533.932.866-.8-1.133-2.131-2.132-3.664-2.865z" fill="#2E82BC"/><path d="M30.313 7.662V3.13l-.533-.133c-.6-.133-1.133-.266-1.732-.266v-2L27.58.6C26.382.2 25.25 0 24.251 0c-1.133 0-2.066.2-2.932.533-1.266.466-2.199 1.133-2.798 1.732l-.334.333c-.266-.266-.6-.6-1.065-.932-.533-.4-1.266-.8-2.066-1.133C14.256.2 13.258 0 12.125 0c-1 0-2.132.2-3.331.6l-.467.133v2.065c-.533 0-1.132.133-1.732.267l-.466.066v13.592l.4-.2a5.13 5.13 0 011.066-.467V4.13c.266-.067.533-.067.8-.067v11.726c.465-.133.932-.2 1.398-.266V1.666a7.852 7.852 0 012.332-.334c.933 0 1.732.2 2.398.4 1 .4 1.8.933 2.332 1.466l.6.6.066.066v8.994l.2-.2c.333-.266.866-.4 1.2-.466V3.797c.2-.266.599-.732 1.265-1.199.466-.333 1-.666 1.732-.932.667-.267 1.466-.4 2.399-.4.733 0 1.532.133 2.398.333v10.127c.466.066.933.133 1.4.266V4.064c.266 0 .532.067.799.067v8.061c.133.066.266.066.4.133l.599.2.4.2V7.662z" fill="#F46F14"/><path d="M50.966 15.99c-.866.266-2.465.666-4.063.666-2.2 0-3.798-.533-4.93-1.599-1.133-1.066-1.733-2.598-1.733-4.397 0-3.997 2.932-6.329 6.929-6.329 1.532 0 2.798.267 3.398.6l-.6 2.198c-.666-.266-1.466-.533-2.798-.533-2.265 0-3.997 1.266-3.997 3.93 0 2.533 1.599 3.998 3.797 3.998.6 0 1.133-.066 1.332-.2v-2.531h-1.865V9.66h4.53v6.329zm5.33-11.593v12.125h-2.731V4.397h2.731zm5.664 8.994l-.867 3.131h-2.798l3.664-12.125h3.598l3.797 12.125h-2.931l-.933-3.131h-3.53zm3.064-1.999l-.733-2.598c-.2-.733-.4-1.599-.6-2.332h-.066c-.2.733-.333 1.6-.533 2.332l-.733 2.598h2.665zm6.329 5.13V4.397h3.197l2.532 4.464a33.632 33.632 0 011.999 4.13h.066c-.2-1.599-.2-3.198-.2-5.063V4.397h2.532v12.125h-2.865l-2.598-4.663c-.733-1.333-1.532-2.865-2.132-4.264h-.066c.066 1.599.133 3.33.133 5.263v3.664h-2.598zm15.19-9.793h-3.265V4.397h9.327v2.265h-3.33v9.794h-2.732V6.729z" fill="#00559F"/><path d="M102.932 11.392h-4.464v2.865h4.997v2.265h-7.729V4.397h7.462v2.265h-4.73v2.532h4.464v2.198zm2.864-6.795c.733-.133 2.132-.266 3.531-.266 1.665 0 2.665.133 3.597.666.867.466 1.466 1.266 1.466 2.398 0 1.066-.599 2.065-1.999 2.598 1.4.334 2.399 1.4 2.399 2.998 0 1.133-.533 2-1.266 2.599-.866.733-2.332 1.132-4.73 1.132-1.333 0-2.332-.066-2.931-.2V4.597h-.067zm2.731 4.597h.866c1.466 0 2.199-.6 2.199-1.532 0-.933-.666-1.4-1.932-1.4-.6 0-.933.067-1.133.067v2.865zm0 5.396c.267.067.6.067 1.066.067 1.266 0 2.332-.466 2.332-1.732 0-1.2-1.066-1.666-2.465-1.666h-.933v3.331zm19.654-4.264c0 3.998-2.398 6.396-5.929 6.396-3.598 0-5.73-2.731-5.73-6.196 0-3.597 2.332-6.329 5.863-6.329 3.731 0 5.796 2.798 5.796 6.13zm-8.727.2c0 2.399 1.132 4.064 2.931 4.064 1.866 0 2.932-1.732 2.932-4.13 0-2.199-1-4.064-2.932-4.064-1.865 0-2.931 1.732-2.931 4.13zm22.052-.2c0 3.998-2.399 6.396-5.93 6.396-3.597 0-5.729-2.731-5.729-6.196 0-3.597 2.331-6.329 5.862-6.329 3.731 0 5.797 2.798 5.797 6.13zm-8.728.2c0 2.399 1.133 4.064 2.931 4.064 1.866 0 2.932-1.732 2.932-4.13 0-2.199-1-4.064-2.932-4.064-1.865 0-2.931 1.732-2.931 4.13zm10.993-6.129h2.731v5.33h.067c.266-.466.533-.866.799-1.332L150.1 4.33h3.331l-3.997 5.13 4.197 6.928h-3.198l-2.998-5.196-.999 1.266v3.93h-2.732V4.397h.067z" fill="#F46F14"/></svg>